<?xml version="1.0" encoding="UTF-8"?>
<svg id="Calque_2" data-name="Calque 2" xmlns="http://www.w3.org/2000/svg" viewBox="0 0 1800 1800">
  <path d="M165.28,1000.39s-18.27.11-14.54,63.56c-2.49,5.81-1.75,19.32.95,22.27.74,4.91-2.46,73.47,28.5,85.02s80.6,15.97,94.85,16.95,18.78,1.83,29.13,1.99,133.7,5.89,183.87,5.38,171.91,1.65,171.91,1.65c0,0,112.87,3.95,137.98,3.71,12.91.01,110.72,3.35,167.15,3.59s135.11-.96,165.48-4.54,110.72-10.52,116.45-11.24,38.95-3.73,38.95-3.73l1.46,1.56s27.68,1.17,66.88-5.21,89.96-9.73,88.44-16.87c7.6-1.67,36.32-8.05,36.32-8.05,0,0,11.09,1.06,32.06-4.56s135.61-35.98,135.61-65.68c.37-9.13-.9-8.44,1.73-12.43.49-5.15-2.84-78.99-10.92-83.2s-8.73-2.61-8.73-2.61c0,0,18.22,16.29-14.08,29.09s-117.89,41.04-243.53,51.43-268.34,22.75-372.59,19.84-403.02-22.13-403.02-22.13c0,0-269.94-5.82-412.33-39.6-13.11-5.09-28.62-8.29-17.98-26.19Z"/>
</svg>