<?xml version="1.0" encoding="UTF-8"?>
<svg id="Calque_1" data-name="Calque 1" xmlns="http://www.w3.org/2000/svg" viewBox="0 0 1800 1800">
  <path d="M542.36,661.78c-.39-.39-1.27-.24-2.29,0-2,.47-4.53,1.04-6.94,1.5-2.68.63-5.12.43-8,.68-1.74.22-3.15.8-4.82,1.17-1.92.43-3.57.28-5.57.59-4.82.8-9.41,2.54-14.34,3.1-2.79.34-5.55,1.07-8.19,2.04-2.28.84-4.63,1.19-7.03,1.99-2.09.73-4.14,1.6-6.33,1.97-7.37,1.28-14.36,3.15-21.28,5.79-8.53,2.96-8.37,3.75-9.96,13.14-1.34,8.49-2.68,16.67-3.09,25.25-.46,6.27-1.02,13.36.15,19.63.02,1.67-.39,2.95-.11,4.49.17,1.3.9,2.56,1.06,3.95.12,2.42-.46,4.75.38,7.3.81,2.8.87,5.57,2.07,8.35.97,2.16.78,4.12,1.18,6.52.53,2.86,1.43,5.87,2.24,8.67,1.79,5.74,6.12,9.82,9.58,14.5,2.93,4.19,8.57,5.56,13.21,6.78,3.21.8,5.82,2.09,8.8,2.48,6.24.96,11.68,1.35,18.04,1.55,4.93.15,9.84,1.83,14.73.56,2.66-.47,6.22.05,9.02-.63,3.26-1.02,7.4-.68,10.66-1.04,4.6-.86,9.56.25,14.16-.13,4.77-.1,9.38-1.07,14.12-.2,2.86.26,6.53,1.77,9.24.72,1.22-.77,1.55-2.34,2-3.64.58-2.06,1.26-4.36,1.59-6.41.61-3.79,3.17-6.96,4.67-10.37.67-1.93,1.91-3.11,4.12-2.8,2.41.26,2.26,2.41,1.72,4.18-1.2,5.03-2.82,9.65-4,14.67-.31,1.47-1.09,2.97-1.49,4.33-.52,2.04.71,3.92,2.97,3.71,1.32,0,2.56-.48,3.84-.76,3.21-.47,5.71-.85,8.67-1.81,2.83-.6,6.12-.31,8.81-1.4,5.34-1.94,11.25-3.24,16.98-3.98,3.11-.46,6.04-2,9.18-2.18,2.2-.18,4.9.1,6.96-.64,1.76-.57,3.51-1.86,5.58-2.26,1.66-.39,3.34-.17,5.02-.26,2.59-.15,4.75-1.22,7.46-1.1,2.69.15,5.33-.38,7.93-1.01,3.29-.67,6.67.02,9.94-.6,1.71-.27,4.48-.73,6.27-1.05,3.78-.8,7.41-2.17,11.18-2.07,3.65-.39,7.52-2.39,11.03-2.55,2.18-.22,4.37-.67,6.61-.83,2.14-.12,4.32-.14,6.33-.97,2.89-1.5,6.14-1.82,9.32-2.2,1.87-.35,3.49-1.23,5.32-1.59,1.7-.35,2.96-.16,4.76-.4,2.88-.46,5.88-1.54,8.71-1.83,2.76-.45,5.35-.81,8.06-1.51,2.38-.63,4.58-1.63,7.06-1.79,5.46.04,10.35-1.48,15.67-2.03,2.77-.24,4.82-1.14,7.44-1.72,2.4-.48,5.16-.65,7.51-1.3,2.91-.79,6.73-.25,9.7-1.31,4.35-1.56,9.07-1.77,13.38-3.12,3.04-.68,6.73-1.52,9.76-2.01,3.26-.45,6.91-1.02,9.8-2.22,4.44-1.36,8.76-2.89,13.03-4.46,2.16-.54,4.3-.31,6.37-1.06,2.01-.69,4.02-2.06,6.05-2.67,4.79-1.48,10.2-.53,14.67-3.11,2.1-1,3.7-2.75,5.8-3.6,1.29-.54,2.71-.66,4.07-.93,3-.39,5.42-3.03,8.12-3.95,1.97-.69,4.49-.33,6.62-1.09,2.36-.88,4.26-2.6,6.87-2.84,1.48-.25,3.08-.36,4.52-.76,2.44-.6,4.05-2.68,6.45-3.35,1.81-.59,4.59-.36,6.37-1.12,1.55-.62,2.28-2.13,3.65-2.98,1.77-1.16,4.25-1.05,6.28-1.98,3.2-1.5,6.23-3.97,9.57-5.28,2.84-1.18,6.27-1.89,9-3.31,1.61-.8,3.44-1.88,5.19-2.29,1.47-.37,2.93-.38,4.38-.93,2.26-.84,4.42-2.42,6.68-3.31,1.84-.78,3.89-.77,5.92-1.58,1.31-.5,2.38-1.41,3.55-2.13,2.22-1.37,5.08-1.19,7.62-1.79,2.66-.62,5.15-1.67,7.86-2.11,3.5-.57,6.89-1.94,10.44-2.77,5.03-.87,10.31-1.31,15.18-2.02.85-.13,1.79-.3,2.59-.48.86-.2,1.52-.4,1.77-.6.24-.19.13-.39-.33-.56-3.24-.94-6.95.12-10.22-.67-5.62-1.3-10.27-.2-15.96.9-3.02.22-4.94-.14-7.6.37-1.4.29-3.15.47-4.68.63-2.8.35-5.11,1.72-7.92,1.64-1.17.01-2.39-.11-3.56-.05-2.6.08-4.73,1.74-7.31,2-4.85.4-9.96-1.07-14.72.86-2.33.76-3.92,2.24-6.29,2.55-2.03.28-4.13-.09-6.16.12-2.09.17-3.68.88-5.81,1.09-1.71.2-3.37-.07-5.07.03-2.66.09-5.19,1.67-7.85,2.02-3.84.45-8.05.22-12.07,1.07-2.62.57-4.97,2.4-7.65,2.71-1.99.24-4.45-.32-6.56.06-1.79.28-3.38,1.13-5.24,1.1-3.12-.21-6.32-1.25-9.51-1.18-3.92-.44-7.48.44-11.21,1.06-5.11.36-10.51-.3-15.46,1.13-2.07.56-4.04,1.8-6,2.63-1.65.65-3.08.44-4.68.44-2.19-.08-4.06,1.05-6.05,1.77-2.44.9-5.09.38-7.58.29-2.29-.02-4.28.47-6.53,1.16-2.07.63-4.41,1.15-6.55,1.02-2.16-.14-4.36-.52-6.52-.2-3.35.58-6.76,2.23-10.28,2.34-1.68.12-3.42.04-5.1.22-2.62.22-5.03,1.23-7.7,1.4-2.61.19-5.27.13-7.79.94-3.41.91-7.04,1.16-10.48,1.74-3.81-.05-6.47.71-10.08,1.24-1.89.13-3.88-.5-5.63-.16-1.91.29-3.64,1.48-5.61,1.92-2.65.58-5.03-.63-7.77-.64-2.32-.15-4.65.93-6.84.91-2.43.05-4.78-1.13-7.23-.73-2.35.43-4.42.91-6.64.27-.93-.21-1.9-.45-2.86-.48-2.89-.09-5.14,1.36-7.85.94-.61-.1-1.22-.26-1.83-.37-2.33-.62-4.51.64-6.9.64-1.98-.18-3.86-1.31-5.91-1.44-1.98-.12-3.88.76-5.83.91-2.34.11-4.42-1.64-6.78-1.39-2.19.29-3.44,2.35-5.44,2.92-2.08.71-4.38-.84-6.11-1.47-1.45-.59-2.92-.35-4.53-.13-2.75.68-5.47-.11-8.19-.51-1.83-.17-3.15.23-5.17.36-2.95.37-5.82-.59-8.74-.67-1.53-.06-3.24.38-4.77.09-1.34-.23-2.58-.84-3.96-.8-2.01-.02-4.55,1.57-6.61,1.69-1.42.15-2.76-.44-4.08-.86-2.42-1-4.8.22-7.33-.03-1.67-.2-3.25-1.02-4.95-.89-2.66.27-5.18,1.6-7.9,1.09-2.12-.1-4.13-1.47-6.26-1.1-.21.05-.42.12-.61.2-1.48.56-2.83,2.23-4.25,1.96-2.09-.6-3.83-1.95-6.17-1.18-1.39.27-2.85.59-4.28.62-2.1.02-3.27-1.3-4.83-1.48-1.19-.2-2.47.35-3.66.17-1.41-.25-2.05-1.64-3.4-2.06-.78-.3-1.76-.27-2.61-.31-3.02-.28-5.73-1.65-8.01-3.52-2.04-2.09-4.99-3.01-6.6-5.48-1.72-2.96-4.29-5.62-4.81-9.11-.09-1.28-.17-2.62-.83-3.74-1.56-2.6-2.05-5.66-2.65-8.76-.13-1.88.17-3.92-.27-5.72-.23-1.55-.63-3.1-.36-4.68.31-1.62.79-3.12.83-4.43,0-2.88-1.49-5.95-.35-8.76.86-2.12.81-4.91,1.34-7.24.05-1.28,1.3-2.71.68-3.75l-.06-.07Z"/>
  <path d="M457.22,1124.78c2.4,6.14,8.77,7.44,14.64,8.36,3.04.6,5.99,1.16,9.15,1.59,8,.98,16.26,1.9,24.38,2.51,4.67.33,9.89.03,14.31.31,5.68.34,10.07.37,15.67.52,2.99-.23,19.39,2.4,18.8-2.6-.59-4.08-2.27-8.15-2.45-12.34-.81-6.17-.39-12.4.24-18.57-.01-5.92-.55-11.55,1.86-17.2,1.29-3.34,1.62-6.64,3.01-10,1.26-2.62,3.06-5.57,4.39-8,1.16-1.89,3.35-2.5,5.43-2.84,4.31-.82,9.38-1.31,13.5-2.19,2.81-.57,6.26.02,9.06-.29,3.06-.41,6.36-.5,9.44-.59,4.58-.05,8.77,1.33,13.39,1.47,4.03.99,8.03.55,12.08.62,1.76.11,3.44.57,5.18.81,2.58.44,4.95-.43,7.45-.75,2.73-.3,5.79.58,8.54.05,5.42-1.43,10.9-.75,16.48-1.87,2.46-.34,6.37.25,8.94-.19,2.19-.36,4.19-.98,6.49-1.07,5.26-.4,10.14-.17,15.27-.63,3.77-.83,7.84-1.26,11.62-1.67,2.81-.59,5.92-1.32,9.04-1.43,3.79-.46,7.19-.09,10.53.12,3.17.05,5.6-.63,8.91-.64,3.61.24,7.33-.04,10.68-1.01,2.05-.43,4.31-.25,6.4-.5,2.41-.29,3.87-.95,6.23-1.23,5.36-.22,11.02-.22,16.8-.7,2.76-.16,5.05.15,7.83.45,4.27.39,8.07.3,12.28.87,2.35.21,4.17.01,6.35.03,3.33.12,6.55.78,9.84.29,6.11-.53,12.4.3,18.52.64,3.43-.31,6.6-.44,10.05-.43,5.38-.49,12.69-.95,18.5-1.41,2.72.21,5.33.64,8.11.25,3.05-.54,6.47.31,9.55-.48,3.45-.85,6.54.31,9.9-.38,3.75-1.16,7.64-1.01,11.54-1.6,1.99-.35,3.81-.96,5.84-1.08,2.57-.18,4.97.31,7.55.04,5.16-.48,10.51-1.17,15.55-1.46,2.03-.03,4.1.29,6.14-.04,2.36-.39,4.49-.94,7.29-1.09,3.8-.08,7.43-.64,11.23-.77,4.07.21,8.09-1.12,12.09-1.03,3.72.25,7.54-.31,11.17-.49,5.97-.01,11.82-.21,17.72-.59,3.88-.37,7.47-.57,11.26-.47,3.1,0,6.09-.74,9.23-.69,4.82.2,9.21,1.69,14.03,1.46.27,0,.54,0,.79-.02,1.64-.07,2.53-.59,2.42-1.21-.05-.31-.38-.65-.95-.96-4-1.58-7.94-2.64-11.93-4.44-1.97-.77-3.74-1.71-5.55-2.52-2.95-1.39-5.64-1.79-8.42-3.18-2.86-1.58-5.56-3.76-8.77-4.71-3.75-1.01-6.15-3.56-9.73-5.08-6.49-1.72-12.78-5.36-18.57-8.47-5.54-3.11-11.61-4.86-17.3-7.4-6.18-3.7-13.16-6.05-19.99-8.14-2.44-.79-5.34-1.92-7.69-2.61-2.35-.72-4.55-.79-6.91-1.25-2.2-.4-3.89-1.11-6.01-1.45-2.34-.42-4.39-.21-6.85-.6-2.01-.31-3.87-.96-5.96-1.23-6.71-.47-13.55-2.09-20.39-2.47-6.19-.52-11.78-.04-18.16-.46-5.35-.48-10.53-.12-15.9.59-3.96.44-7.7.48-11.74.64-11.06.64-22.48.31-33.73,1-8.08.02-16.86-.31-25.04.02-7.51.5-14.77-.37-22.17-.21-4.02.13-7.76.58-11.62.08-5.69-.96-11.57-1.38-17.34-1.11-4.88.06-9.82-.49-14.72-.49-8.83,0-17.97.51-26.69.3-7.69-.14-14.72.37-22.14.13-5.74-.2-11.68.56-17.17.17-7.01-.67-13.82-.78-20.69-1.4-6.02-.87-12.79-1.8-18.81-2.59-3.14-.48-6.16-1.48-9.5-2.36-1.44-.46-3.37-.74-4.5-.11-.71.34-1,.94-.73,1.75.76,2.16,3.25,3.55,4.33,5.57.66,1.13.93,2.39,1.2,3.66,1.4,5.48,2.77,11.07,3.34,16.73.68,4.86-5.27,2.75-7.21.82-1.04-1-1.54-2.17-2.04-3.62-.65-1.98-.88-4.11-1.72-6.01-.94-2.29-3-4.18-4.49-6.55-1.47-2.23-2.24-5.09-4.49-6.66-2.36-1.39-4.54-.07-7.44-.68-1.62-.33-3.15-1.11-4.83-1.1-2.21-.04-3.85,1.07-6.09,1.71-5.15,1.66-10.38-.05-15.75.22-4.05.32-8.01,1.12-12.11,2-3.91.96-7.98,1.38-11.9,2.27-5.82,1.98-11.5,3.72-17.41,5.71-6.44,2.11-13.23,4.14-18.89,7.93-2.64,1.77-5.41,3.27-7.63,5.49-2.03,2.08-3.64,4.4-5.13,6.92-5.35,8.66-7.53,19.04-9.22,28.97-.31,2.43.08,5.06-.25,7.45-.49,2.99-.41,6.04-.43,9.03-.38,3.06-1.53,5.83-1.01,8.94-.86,8.61.45,16.69.84,25.35.21,7.91.85,16.07,3.72,23.4l.07.17Z"/>
</svg>