<?xml version="1.0" encoding="UTF-8"?>
<svg id="Calque_2" data-name="Calque 2" xmlns="http://www.w3.org/2000/svg" viewBox="0 0 1800 1800">
  <path d="M1303.96,1057.44c.64.51,1.54.61,2.37.58,2.78-.08,8.43-.28,10.95-.36,5.58-.16,14.35-1.1,18.97-1.35,9.39-.79,23.23-.65,30.53-1.64,5.24-.91,10.45-1.54,15.8-2.32,2.28-.28,4.8-.62,6.98-.97.99-.2,1.63-.65,2.03-1.3,1.69-3.41.07-8.44-.08-12.3-.38-2.73,1.05-4.54.67-7.29-.45-3.2-1.11-6.96-1.24-10.04.04-1.83.47-3.65.15-5.49-.28-2.06-1.55-4.17-1.46-6.2.02-1.83,1.07-3.4.85-5.27-.27-2.17-1.45-4.77-1.79-6.98-.3-2.05.06-4.15-.48-6.34-.4-1.69-1.24-3.23-1.48-4.97-.25-1.59-.14-3.12-.3-4.72-.22-2.52-1.01-4.86-1.15-7.32-.13-1.64-.01-3.26-.29-4.89-.33-2.13-1.26-3.6-1.66-5.67-.35-1.63-.17-3.34-.52-4.97-.69-2.36-1.55-4.62-1.38-7.22-.72-4.58-3.01-8.43-4.59-12.82-1.31-2.82-1.34-5.72-2.23-8.82-1.35-3.4-2.94-7-4.36-10.5-.9-1.91-1.84-3.36-2.7-5.55-1.1-3.14-2.7-5.84-4.42-8.63-1.22-2.24-2.05-4.31-3.46-6.2-2.45-3.7-5.56-6.34-8.83-9.44-3.45-4.38-8.42-7.31-13.52-9.67-1.91-.75-3.1-.71-5.06-1.34-4.08-1.37-7.76-3.39-11.58-5.25-4.05-1.91-8.53-2.76-12.62-4.54-7.31-2.88-14.15-5.63-21.38-7.93-3.54-1.72-6.83-2.46-10.5-4.05-2.94-1.84-5.92-1.91-9.14-2.92-1.82-.72-3.12-1.87-4.96-2.44-2.62-.77-5.63-.81-8.14-1.95-3.04-1.36-6.31-1.78-9.34-2.97-4.16-2.08-8.01-5.57-12.95-5.7-2.71-.01-2.75,3.66-3.23,5.84-.63,2.41-1.37,4.95-3.89,5.57-3.1.47-5.86-1.33-4.97-4.92.35-1.97.75-3.95,1.26-5.88.72-2.46,1.36-5.99-.78-7.79-2.01-1.6-5.17-3.49-7.52-4.66-1.93-.84-3.16-.7-5.11-1.37-2.53-.91-5.38-2.73-7.71-3.59-2.98-.97-6.21-2.85-9.17-4.17-2.42-.95-5.48-1.09-7.62-2.48-2.68-1.85-6.17-2.59-9.01-3.99-2.49-1.48-4.93-2.91-7.83-3.47-2.66-.56-4.7-1.47-6.76-3.08-1.29-.92-2.98-1.53-4.57-1.98-2.5-.75-4.24-2.11-6.29-3.46-2.05-1.49-4.74-1.63-6.94-2.45-1.43-.55-2.47-1.58-3.86-2.23-1.42-.68-3.14-1.05-4.65-1.52-3-.69-5.03-3.06-7.89-4.31-1.81-.76-3.8-.78-5.62-1.63-2.41-1.17-4.31-3.35-6.91-4.19-2.66-.71-5.11-1.8-7.37-3.39-2.53-1.68-5.85-1.87-8.46-2.94-1.76-.75-3.25-2.04-5.03-2.78-1.75-.74-3.69-1.25-5.3-2.19-1.48-.82-2.85-1.84-4.42-2.49-1.59-.72-3.24-.93-4.81-1.65-1.83-.81-3.45-2.3-5.25-3.11-2.36-1.01-5.05-1.36-7.09-3.01-2.67-2.26-6.64-2.11-9.51-3.79-2.08-1.25-4.79-3.68-7.12-4.69-1.87-.79-3.65-1.76-5.09-3.22-1.9-2.12-4.64-2.51-7.27-3.45-2.14-.74-3.45-2.68-5.38-3.77-1.8-1.07-4.01-1.25-5.78-2.22-2.5-1.64-4.41-3.81-7.57-4.53-1.03-.33-2.15-.55-3.06-1.08-1.9-1.14-2.84-3.29-5.2-4.12-1.48-.64-3.07-1.21-4.51-1.93-2.05-.96-3.05-2.82-5.07-4.14-2.1-1.44-5.3-1.83-7.09-3.39-.82-.69-1.48-1.54-2.24-2.28-2.58-2.52-7-2.11-9.74-4.29-2.84-1.89-5.55-4.02-8.5-5.75-2.83-1.86-5.45-4.41-8.83-5.1-2.08-.63-3.07-2.48-4.99-3.62-1.89-1.17-4.66-1.24-6.5-2.08-1.47-.66-2.36-1.51-3.72-2.72-2.18-2.17-5.25-2.88-7.95-4.1-1.53-.87-2.37-2.43-3.9-3.38-1.27-.84-2.75-1.11-4.15-1.66-2.23-.82-4.12-2.49-6.05-3.75-2.79-1.89-5.94-2.92-8.96-4.5-2.35-1.34-4.55-3.05-7.08-4-2.16-.76-5.13-2.62-7.36-3.52-2.69-1-5.57-1.3-8.06-2.95-2.19-1.42-4.83-1.52-7.38-1.96-5.06-1.6-10.6-1.56-15.64-.18-5.13,1.23-9.65,3.68-14.69,5.25-5.89,1.7-10.99,4.91-16.42,7.8-2.3,1.19-4.6,2.8-7.1,3.67-4.18,1.3-7.98,2.69-12.11,4.96-3.79,1.72-7.2,3.83-10.51,6.17-1.9,1.05-3.78,1.74-5.69,2.84-.65.43-1.12.72-1.27,1.35-.23,1.5,2.17,2.18,3.7,3.69,1.31,1.11,2.31,2.45,3.73,3.44,1.68,1.23,3.92,1.92,5.71,3.05,2.03,1.23,3.31,2.87,5.29,4.08,2.37,1.45,5.21,2.27,7.35,4.1,2.78,2.88,6.78,4.25,9.96,6.42,1.87,1.46,3.64,3.28,5.93,4.12,3.81,1.04,7.07,3.81,10.52,5.73,1.54.78,3.06,1.24,4.57,2.1,2.36,1.29,4.48,3.46,6.87,4.18,1.59.53,3.26.76,4.75,1.6,2.55,1.52,4.66,3.75,7.42,4.91,3.19,1.37,5.93,3.33,8.95,4.91,2.99,1.42,6.02,2.73,9.06,4.49,5.08,2.7,9.64,6.12,14.8,8.58,3.94,1.28,7.2,3.66,10.67,5.94,2.43,1.47,4.94,3.12,7.4,4.81,3.05,2.07,6.74,2.65,9.95,4.49,2.94,1.59,6.11,3.22,9.06,4.9,2.75,1.64,5.38,3.46,8.44,4.48,3.15.99,5.71,3.1,8.57,4.71,2.01,1.06,4.18,1.64,6.23,2.6,3.78,1.74,7.22,3.85,10.9,5.61,4.25,1.59,8.22,3.34,12.21,5.48,6.31,2.43,12.33,5.47,18.48,8.49,4.76,1.6,8.98,4.52,13.63,6.49,2.67,1.15,4.62,3,7.14,4.46,6.67,3.21,13.4,6.62,20.1,9.77,4.04,1.88,8.34,3.69,12.23,5.76,3.43,1.44,7.27,1.87,10.51,3.71,2.63,1.43,5.69,2.32,8.47,3.44,2.38.98,4.61,2.38,7.12,3,4.42.64,8.09,2.99,12.39,4.16,3.97.8,7.2,3.46,10.99,4.79,3.85,1.08,7.36,3.22,11.14,4.3,2.28.56,4.66.84,6.75,1.96,3.19,2.05,6.72,2.92,10.37,3.95,1.63.57,3.08,1.4,4.68,2.03,2.36.98,5.31,1.28,7.58,2.15,4.11,1.78,7.87,3.94,12.12,5.36,4.92,2.08,9.78,2.8,14.63,4.51,3.23,1.26,6.14,2.01,9.15,2.86,4.2,1.58,8.22,3.17,12.52,4.43,2.04.73,3.75,1.7,5.79,2.48,2.88,1.07,6.08,1.74,8.87,2.97,5.96,2.15,10.89,4.67,16.48,7.33,8.3,3.43,16.48,7.73,23.06,13.77,5.62,4.49,10.74,9.92,14.48,16.09,1.19,1.81,1.83,3.95,2.79,5.77.83,1.51,1.89,2.51,2.71,4.02,1.12,2.14,1.63,4.51,2.95,6.6,1.91,3.2,2.53,7.32,4.22,10.56,1.1,2.34,1.4,4.75,2.19,7.28.67,1.99,1.68,3.73,2.15,5.86.54,2.35.69,4.86.99,7.32.37,3.95,1.45,7.85,2.3,11.81.54,2.45.76,4.84,1.18,7.14.43,2.28,1.55,4.5,1.93,6.64.42,2.09.03,4.73.29,6.97.33,2.77,1.64,5.21,1.74,8.04.01,3.68.57,7.24,1.08,10.9.3,3.35.37,6.77.76,10.01.4,2.83-.28,5.73.19,8.53.37,1.78,1.27,3.98,2.34,5.02l.1.08Z"/>
</svg>