<?xml version="1.0" encoding="UTF-8"?>
<svg id="Calque_2" data-name="Calque 2" xmlns="http://www.w3.org/2000/svg" viewBox="0 0 448.24 129.15">
  <defs>
    <style>
      .cls-1 {
        font-family: Didot-Italic, Didot;
        font-size: 23.19px;
        font-style: italic;
      }

      .cls-2 {
        isolation: isolate;
      }

      .cls-3 {
        letter-spacing: 0em;
      }

      .cls-4 {
        letter-spacing: -.01em;
      }

      .cls-5 {
        letter-spacing: -.06em;
      }
    </style>
  </defs>
  <g id="Calque_2-2" data-name="Calque 2">
    <g>
      <g>
        <path d="M122.24,78.03c.13-.25.25-.37.25-.62,0-.62-9.3-.99-18.36-7.94-9.06,8.56-22.33,14.26-32.75,14.26-11.66,0-20.1-6.57-20.1-12.9,0-4.84,2.11-7.82,5.58-7.82s5.71,1.74,5.71,4.47-1.61,4.71-3.85,4.71c-2.73,0-4.22-1.49-4.96-4.09-.25.49-.87,1.49-.87,2.61,0,5.46,6.95,11.29,18.36,11.29s24.81-7.07,31.63-13.64c-7.82-6.82-12.65-16.38-12.65-25.43,0-13.27,7.44-21.96,15.26-21.96,11.91,0,20.72,7.94,25.68,22.21,5.33-4.22,14.26-13.64,28.91-24.69C178.8,4.34,193.94,0,197.54,0c1.37,0,3.35.25,3.35.75,0,1.37-1.37,1.74-2.11,2.36-23.82,20.22-36.47,35.61-43.17,43.17-14.64,16.62-22.83,26.92-24.69,30.15,6.57-.87,11.41-2.48,13.64-4.47.37-.37,1.37-1.37,2.11-1.37.25,0,.25.25.25.49,0,1.24-5.83,6.08-17,6.95l-3.23,4.22c-.13.13-.62.75-1.12.75l-5.33-.37c-.37,0-.75-.13-.75-.49,0-.25,0-.37.13-.62l2.61-3.47h0ZM129.68,44.53c-1.86-6.08-4.71-11.16-8.93-15.14-4.34-4.09-7.82-4.96-13.4-4.96-7.07,0-15.14,6.82-15.14,18.48,0,9.18,5.21,19.48,12.16,24.56l25.31-22.95h0ZM105.61,68.47c4.96,3.85,12.9,7.07,17.86,7.44,2.73-3.97,7.32-15.51,7.32-23.2,0-2.11-.25-4.34-.62-6.2l-24.56,21.96h0ZM128.32,69.72c6.45-7.57,18.73-24.44,41.93-46.52,13.52-12.9,22.58-18.36,25.8-20.72-7.32.62-20.72,6.33-34.73,17.12-19.85,15.26-29.77,25.18-29.77,25.68s-.13.75.13,1.11c.37.62.75,3.97.75,7.94,0,.99-.99,6.95-4.09,15.38h0Z"/>
        <path d="M200.73,68.73c8.06-5.71,12.4-10.05,18.36-10.05,2.11,0,3.47,1.74,3.47,4.22,0,1.37-1.24,3.6-2.23,5.21,6.95-5.33,11.78-9.3,16.25-9.3,2.98,0,4.47,1.37,4.47,4.22,0,3.47-3.35,8.06-7.57,11.04-3.35,2.36-5.95,4.84-5.95,5.83s.75,1.49,1.61,1.49c3.72,0,9.92-3.47,17.62-10.42.25-.25.62-.37.99-.37.25,0,.25.25.25.49,0,1.11-11.91,11.78-18.61,11.78-2.36,0-3.97-1.74-3.97-4.22,0-2.98,2.11-6.08,5.58-8.93,4.47-3.72,7.82-6.45,7.82-7.69,0-1.37-.87-1.74-2.23-1.74-3.72,0-12.28,5.46-24.07,17.24-3.1,3.1-5.09,5.46-5.95,5.46h-4.59c-.25,0-.62-.13-.62-.37,0-.37.13-.49.37-.75l16.38-17.24c.75-.75,1.61-2.36,1.61-3.35,0-.87-.87-1.11-1.61-1.11-3.47,0-14.88,7.07-24.31,16.62-3.6,3.72-6.2,6.2-6.82,6.2h-4.47c-.25,0-.62-.25-.62-.49s-.13-.37.13-.62l16.87-17.62c.75-.75,1.49-1.86,1.49-3.1,0-.62-.49-1.11-1.11-1.11-2.48,0-7.94,3.6-15.51,10.42-.25.25-.49.37-.87.37-.25,0-.37-.25-.37-.49,0-.87,11.29-11.78,17.12-11.78,2.23,0,3.72,1.74,3.72,4.34,0,2.23-1.37,4.09-2.61,5.83h0Z"/>
        <path d="M266.22,70.59c-.38,0-.62.12-.88.37-8.19,7.44-14.01,11.42-16.62,11.42-1.12,0-1.61-.5-1.61-1.61,0-.5,1.24-2.48,2.35-3.6l16.25-16.62c.25-.25.25-.5.25-.74s-.37-.5-.62-.5h-4.71c-.62,0-1,.25-1.24.5l-6.95,6.08c-2.74,2.35-4.84,3.97-4.84,4.46,0,.25.13.5.38.5.99,0,2.23-1.86,4.34-3.1l-3.47,3.59c-1.61,1.61-3.97,5.46-3.97,7.94,0,2.85,1.24,4.58,3.72,4.58,5.21,0,17.98-11.91,17.98-12.78,0-.25-.12-.49-.37-.49h0Z"/>
        <path d="M282.6,61.65c-1.99.13-4.71.49-4.71.49-.99.49-4.59,2.98-6.2,4.47-2.36,2.23-4.34,4.22-5.09,4.22-.25,0-.37-.25-.37-.49,0-.62,2.98-3.35,7.69-7.19.62-.49,2.11-1.74,2.11-1.86,0-.37-.25-.62-.62-.75-.87-.25-.99-1.24-.99-2.23,0-1.99,1.37-3.72,2.98-3.72,1.49,0,2.85,1.24,2.85,2.48,0,1.86-1.24,2.48-2.98,2.98.37.13.49.49.87.49,3.72,0,5.33-1.11,5.83-1.11.37,0,.62.13.87.37l2.61,2.61c.25.25.37.49.37.75,0,.87-3.85,5.83-10.17,11.16-3.35,2.85-5.21,5.95-5.21,6.57,0,1.74,1.24,1.11,2.61,1.11,1.74,0,11.29-5.33,12.9-7.57,1.12-1.61,3.35-3.47,4.71-4.09.25-.13.49.25.49.49,0,2.23-13.64,13.02-19.35,13.02-2.48,0-4.22-1.61-4.22-3.97,0-3.1,1.24-5.95,5.33-10.17l7.69-8.06h0Z"/>
        <path d="M309.64,75.05c-6.2,4.71-11.04,8.56-14.76,8.56-2.36,0-4.34-2.11-4.34-4.96.49-4.84,3.85-10.54,10.67-14.52,6.08-3.6,10.67-5.21,14.39-5.21,2.73,0,3.72,1.12,4.09,3.72l2.98-3.1c.25-.25.75-.49,1.11-.49h4.22c.25,0,.62.25.62.49s-.13.49-.25.75l-16.13,17.49c-.62.75-1.61,2.23-1.61,3.1,0,.75.75,1.24,1.49,1.24,2.85,0,8.19-3.97,16.13-11.16.25-.25.62-.37.99-.37.25,0,.25.25.25.49,0,.99-12.9,12.53-17.24,12.53-2.85,0-3.6-1.37-3.6-4.22,0-1.49.49-3.23.99-4.34h0ZM315.72,60.41c-7.07,0-22.83,17.12-22.83,19.1,0,1.61.13,2.61,1.74,2.61,5.83,0,23.45-15.5,23.45-18.98,0-1.99-.37-2.73-2.36-2.73Z"/>
        <path d="M339.53,69.59c-4.96,5.58-7.69,10.17-7.69,11.04,0,.99.37,1.74,1.49,1.74,2.36,0,9.55-3.35,17.49-10.54.25-.25,1.12-1.24,1.86-1.24.25,0,.37.25.37.49,0,.87-13.27,12.78-19.6,12.78-2.73,0-3.85-1.99-3.85-5.33,0-3.97,3.47-8.31,7.69-13.77-4.59,3.1-6.57,6.08-7.69,6.08-.25,0-.37-.25-.37-.49,0-.62,4.96-5.71,14.14-12.16l11.04-11.41c.37-.37,6.08-7.57,20.59-19.6,7.19-5.95,14.26-9.3,17.37-9.3,2.61,0,4.59,1.61,4.59,3.85,0,5.21-15.63,19.72-43.42,32.01l-14.02,15.88h0ZM355.91,51.36c23.45-10.54,39.08-25.68,39.08-29.77,0-1.49-1.11-2.23-2.61-2.23-4.09,0-13.15,5.83-20.96,14.64l-15.5,17.37h0Z"/>
        <path d="M271.01,47.56l-1.86-1.86c-.12-.13-.25-.25-.5-.25s-.5.12-.62.25l-2.23,1.99c-.12.12-.12.25-.12.49s0,.38.12.5l2.35,2.23c.13.12.25.12.38.12.25,0,.37,0,.5-.12l1.98-2.35c.13-.12.13-.25.13-.5s0-.37-.13-.5h0Z"/>
        <polygon points="183.18 69.35 181.13 71.48 182.1 72.38 185.54 68.85 183.18 69.35"/>
        <polygon points="248.48 69.28 245.46 72.1 246.35 73.08 250.47 69.1 248.48 69.28"/>
        <polygon points="267.89 68.33 263.12 72.94 264.14 73.81 269.87 68.33 267.89 68.33"/>
        <path d="M292.29,70.52s3.86-2.61,4.46-3.14,1.2,1.47,1.2,1.47c0,0-6.12,3.92-7.09,5.02"/>
        <polygon points="327.38 71.74 331.32 67.89 332.17 68.95 328.03 72.85 327.38 71.74"/>
        <g class="cls-2">
          <path d="M163.48,74.49c-6.38,5.26-11.27,8.51-15.4,8.51-2.63,0-4.51-1.88-4.51-4.51,0-3.88.75-6.26,3.63-9.51,6.13-7.01,17.9-10.89,21.28-10.89,3,0,5.01,1.5,5.01,4.38l35.8-36.55c.25-.25.63-.63,1.25-.63h4.26c.38,0,.75.13.75.5,0,.25.13.5-.13.75l-45.82,46.32c-3.13,3.25-5.51,5.88-5.51,7.39,0,.88.88,1.13,1.63,1.13,3.76,0,9.14-4.13,17.15-11.39.25-.25.63-.38,1-.38.25,0,.25.25.25.5,0,.63-12.14,12.77-18.9,12.77-2.38,0-3.13-1.25-3.13-3.76,0-1.75.75-3.38,1.38-4.63ZM171.62,61.22c0-.75-1.38-1.38-2.38-1.38-6.26,0-23.03,15.15-23.03,20.28,0,.75,1.25,1.38,2.25,1.38,4.01,0,23.16-13.52,23.16-20.28Z"/>
        </g>
      </g>
      <text class="cls-1" transform="translate(0 122.42)"><tspan x="0" y="0">Crafted on the Isle of Man</tspan><tspan class="cls-5" x="251.49" y="0">,</tspan><tspan class="cls-3" x="256.66" y="0" xml:space="preserve"> brushed </tspan><tspan class="cls-4" x="344.24" y="0">b</tspan><tspan x="355.93" y="0">y the Sea</tspan><tspan class="cls-5" x="443.07" y="0">.</tspan></text>
    </g>
  </g>
</svg>