<?xml version="1.0" encoding="UTF-8"?>
<svg id="Calque_2" data-name="Calque 2" xmlns="http://www.w3.org/2000/svg" viewBox="0 0 1800 1800">
  <path d="M1190.55,1269.23c.04,1.51.19,3.12,0,4.64-.34,2.64-2.6,4.27-1.88,6.76.35,1.37,1.1,2.82.94,4.29-.16,1.76-1.04,3.51-1.4,5.23-.55,2.38.3,4.61.36,7,.09,1.14,0,2.31.37,3.38.58,1.78,2.23,2.26,4,2.65,1.9.44,3.55.83,5.37,1.19,7.54,1.18,15.26,2.91,22.81,4.2,4.91.83,9.75,1.57,14.64,1.92,4.03.83,8.07,1.04,12.08.36,3.03-.61,5.56-.28,5.57-4.34.1-1.64.99-3.67.86-5.58-.11-1.94-1.05-3.93-1.19-5.87-.13-2,.94-3.52,1.18-5.5.15-1.43-.19-2.92-.26-4.36-.41-2.84,1.13-4.85,1.69-7.6.47-2.02.03-4.28.4-6.3.43-2.16,1.78-3.47,2.05-6.13.16-1.47-.02-3.07.39-4.5.68-2.22,2.34-3.95,2.49-6.51.11-1.62-.03-3.35.74-4.82.68-1.49,2.1-2.56,2.8-4.14.99-2.03.73-4.45,1.46-6.55,1.18-2.74,3.55-4.58,3.49-7.89.08-1.28.34-2.53,1.23-3.47.91-1.09,2.58-1.85,3.51-3.32,1.38-2.47,2.26-5.24,3.66-7.7,1.05-1.75,1.2-4.03,2.06-5.88,1-1.89,3.11-3.18,3.93-5.28.99-3.09,3.21-5.59,4.88-8.18.58-1.03.82-2.18,1.19-3.29.61-1.86,1.77-3.12,2.64-4.84.61-1.23.79-2.59,1.29-3.86.79-1.89,1.69-3.23,1.82-5.2-.17-3.03,1.45-5.83,1.36-8.83-.76-6.37-4.31-11.94-9.74-15.3-4.83-4.41-11.16-6.53-16.06-10.8-2.46-1.95-3.98-4.47-6.74-6.04-.92-.51-1.96-1.02-2.81-1.64-1.82-1.24-3.27-2.94-5.44-3.81-1.05-.44-2.11-.89-3.1-1.45-2.85-1.88-5.86-3.49-8.8-5.19-2.58-1.75-5.68-2.42-8.51-3.56-4.93-2.8-8.26-4.01-12.74.28-4.35,3.77-9.2,2.44-14.14.72-.36-.13-1.39-.49-.66-.85,1.33-.58,3.25-.59,4.61-1.27,3.11-1.52,5.75-4,8.66-5.78,1.46-1.01,3.34-1.65,4.4-3.08,2.01-3.32-2.08-6.16-4.62-7.65-2.72-1.27-4.55-3.42-6.87-5.19-1.83-1.15-4.18-1.59-5.97-2.78-2.31-1.75-4.78-3.68-7.28-5.11-3.65-2.59-7.63-4.54-10.62-8.02-2.13-1.76-4.71-2.62-6.6-4.67-1.09-1.17-2.28-2.25-3.7-3.02-3.64-1.61-6-4.94-9.61-6.52-4.25-2.27-7.51-6.25-11.49-8.84-6.65-4.66-12.26-10.47-18.64-15.44-5.31-4.18-9.12-8.77-14.71-12.61-6.5-5.02-11.79-10.84-18.22-16.14-5.33-4.47-10.5-9.38-15.42-14.42-2.19-2.57-4.93-4.07-7.47-6.34-2.9-2.6-5.16-5.59-8.14-8.16-2.99-2.83-6.16-4.99-8.89-7.94-4.25-4.5-8.45-9.56-12.57-14.33-2.88-2.74-6.16-5.25-8.94-7.99-5.82-5.04-11.47-9.15-17.78-14.06-3.38-2.53-6.36-4.1-9.72-6.85-4.49-3.33-9.08-6.48-13.87-9.45-4.62-2.09-9.24-4.72-14.01-6.23-5.73-1.4-11.53-.38-17.15.97-4.13.8-8.31,1.53-12.15,3.27-6.24,2.38-12.5,4.09-18.51,6.59-4.46,2.02-9.31,4.02-13.91,6.09-2.52,1.44-5.18,3.2-7.36,5-1.33,1.47-.6,2.61.72,4.42.82,1.2,1.37,2.55,2.37,3.61,1.23,1.38,2.78,1.78,4.06,3.03,1.22,1.16,1.69,2.61,2.87,3.85.94,1.05,2.15,1.74,3.13,2.74,1.13,1.11,1.77,2.44,2.84,3.53,1.22,1.28,2.57,1.9,3.79,3.36,1.51,2.31,3.49,4.15,5.65,5.84,1.81,1.97,3.29,4.17,5.65,5.53,2.21,1.49,3,4.22,5.2,5.69,3.19,1.74,4.8,5.13,7.87,7.03,1.88,1.41,2.45,3.73,4.02,5.42,1.02,1.14,2.33,1.78,3.52,2.72,2.77,2.4,4.96,5.67,8.39,7.25,2.57,1.51,4.42,4.62,6.54,6.45,1.92,1.65,4.87,2.71,7.02,4.37,1.78,1.48,3.03,3.53,4.93,5,1.12.94,2.16,2.01,3.01,3.21,1.37,2.13,3.3,3.48,5.03,5.23,1.85,2.22,3.49,4.74,5.88,6.42,2.23,1.89,4.43,4.36,6.97,5.74,1.91,1.13,3.19,2.89,4.94,4.23,1.04.77,2.19,1.38,3.07,2.34,1.34,1.37,2.18,3.52,4,4.61.95.61,1.99,1.16,2.78,2,1.61,1.71,2.46,4.42,4.69,5.76,2.01,1.19,3.18,3.18,4.73,4.83,2.15,1.72,4.79,3.05,6.49,5.4,1.59,1.73,3.56,2.33,5.19,3.93,1.36,1.3,2.14,3.11,3.69,4.22,1.4,1.06,2.95,1.29,4.29,2.45,1.25,1.03,1.78,2.34,2.96,3.44,1.21,1.16,2.64,1.66,3.91,2.73,1.15.92,1.96,2.08,3.11,3.02,1.45,1.24,3.08,1.9,4.53,3.17,1.29,1.07,2.23,2.43,3.59,3.41,1.3.99,2.81,1.47,4.16,2.35,1.92,1.29,3.44,3.08,5.62,4.06,2.98,1.36,6.01,3.56,8.94,4.92,2.11,1.05,3.38,2.97,5.23,4.36,2.43,1.57,5.17,2.59,7.28,4.64,1.83,1.48,3.68,2.18,5.26,3.84,1.62,2.17,3.67,3.68,6.18,4.67,2.35,1.52,4.44,3.63,7.23,4.56,2.25,1.07,3.97,3.3,6.35,4.08,2.74.78,4.57,3.02,7.06,4.29,1.26.61,2.54.93,3.7,1.74,1.5.98,2.43,2.51,3.91,3.55,2.63,1.48,5.1,3.04,7.14,5.31,2.61,1.91,5.14,3.45,7.62,5.52,1.52,1.01,3,1.4,4.45,2.57,1.24.97,2.13,2.3,3.53,3.08,1.58.95,3.26,1.05,4.88,2.04,3.17,2.25,5.52,5.37,8.67,7.69,8.63,4.64,11.26,10.88,14.4,19.72,2.95,7.35-.34,15.19-3.31,22-.78,2.17-.56,4.23-1.23,6.44-.45,1.56-1.25,2.94-1.67,4.51-.61,2.32-.8,4.63-1.85,6.93-.58,1.33-1.21,2.72-1.34,4.17.1,3.59-1.8,6.94-1.99,10.45.32,3.49-.36,6.86-1.47,10.15-.55,2.46-.39,4.75-.85,7.17-.31,1.64-.68,3.32-.57,4.98v.18Z"/>
</svg>