<?xml version="1.0" encoding="UTF-8"?>
<svg id="Calque_2" data-name="Calque 2" xmlns="http://www.w3.org/2000/svg" viewBox="0 0 1197.51 239.42">
  <defs>
    <style>
      .cls-1 {
        letter-spacing: .35em;
      }

      .cls-2 {
        letter-spacing: .35em;
      }

      .cls-3 {
        letter-spacing: .35em;
      }

      .cls-4 {
        letter-spacing: .21em;
      }

      .cls-5 {
        letter-spacing: .21em;
      }

      .cls-6 {
        letter-spacing: 0em;
      }

      .cls-7 {
        letter-spacing: 0em;
      }

      .cls-8 {
        letter-spacing: 0em;
      }

      .cls-9 {
        letter-spacing: 0em;
      }

      .cls-10 {
        font-family: Didot-Italic, Didot;
        font-size: 24px;
        font-style: italic;
      }

      .cls-11 {
        letter-spacing: -.1em;
      }

      .cls-12 {
        letter-spacing: -.11em;
      }

      .cls-13 {
        letter-spacing: -.14em;
      }

      .cls-14 {
        letter-spacing: -.02em;
      }

      .cls-15 {
        letter-spacing: -.05em;
      }

      .cls-16 {
        letter-spacing: -.06em;
      }

      .cls-17 {
        letter-spacing: -.05em;
      }

      .cls-18 {
        letter-spacing: -.05em;
      }

      .cls-19 {
        letter-spacing: -.04em;
      }

      .cls-20 {
        letter-spacing: -.03em;
      }

      .cls-21 {
        letter-spacing: -.03em;
      }

      .cls-22 {
        letter-spacing: -.03em;
      }

      .cls-23 {
        letter-spacing: -.03em;
      }

      .cls-24 {
        letter-spacing: -.03em;
      }

      .cls-25 {
        letter-spacing: -.01em;
      }

      .cls-26 {
        letter-spacing: -.01em;
      }

      .cls-27 {
        letter-spacing: -.01em;
      }

      .cls-28 {
        letter-spacing: -.01em;
      }

      .cls-29 {
        letter-spacing: 0em;
      }

      .cls-30 {
        letter-spacing: 0em;
      }

      .cls-31 {
        letter-spacing: .1em;
      }

      .cls-32 {
        letter-spacing: .1em;
      }

      .cls-33 {
        letter-spacing: .1em;
      }

      .cls-34 {
        letter-spacing: .02em;
      }

      .cls-35 {
        letter-spacing: .03em;
      }

      .cls-36 {
        letter-spacing: .03em;
      }

      .cls-37 {
        letter-spacing: .03em;
      }

      .cls-38 {
        letter-spacing: .04em;
      }

      .cls-39 {
        letter-spacing: .04em;
      }

      .cls-40 {
        letter-spacing: .04em;
      }

      .cls-41 {
        letter-spacing: .03em;
      }

      .cls-42 {
        letter-spacing: .03em;
      }

      .cls-43 {
        letter-spacing: .03em;
      }

      .cls-44 {
        letter-spacing: 0em;
      }
    </style>
  </defs>
  <g id="Calque_1-2" data-name="Calque 1">
    <text class="cls-10" transform="translate(4.22 20.63)"><tspan x="0" y="0">Born</tspan><tspan class="cls-43" x="49.75" y="0"> </tspan><tspan x="56.22" y="0">from</tspan><tspan class="cls-42" x="103.74" y="0"> </tspan><tspan x="110.2" y="0">a</tspan><tspan class="cls-43" x="123.09" y="0"> </tspan><tspan x="129.56" y="0">deep</tspan><tspan class="cls-42" x="175.78" y="0"> </tspan><tspan x="182.24" y="0">admiration</tspan><tspan class="cls-43" x="293.77" y="0"> </tspan><tspan class="cls-29" x="300.24" y="0">f</tspan><tspan x="307.99" y="0">or</tspan><tspan class="cls-42" x="329.3" y="0"> </tspan><tspan x="335.77" y="0">the</tspan><tspan class="cls-43" x="365.98" y="0"> </tspan><tspan x="372.45" y="0">sea</tspan><tspan class="cls-42" x="404.01" y="0"> </tspan><tspan x="410.47" y="0">and</tspan><tspan class="cls-43" x="449.14" y="0"> </tspan><tspan x="455.6" y="0">its</tspan><tspan class="cls-43" x="477.83" y="0"> </tspan><tspan x="484.29" y="0">r</tspan><tspan class="cls-29" x="494.06" y="0">a</tspan><tspan x="506.71" y="0">w</tspan><tspan class="cls-42" x="524.49" y="0"> </tspan><tspan x="530.96" y="0">eleganc</tspan><tspan class="cls-19" x="606.08" y="0">e</tspan><tspan class="cls-15" x="615.34" y="0">,</tspan><tspan class="cls-20" x="620.69" y="0"> </tspan><tspan class="cls-6" x="625.68" y="0">Admiral</tspan><tspan class="cls-43" x="710.11" y="0"> </tspan><tspan x="716.57" y="0">dr</tspan><tspan class="cls-29" x="739.23" y="0">a</tspan><tspan class="cls-8" x="751.88" y="0">ws</tspan><tspan class="cls-43" x="778.11" y="0"> </tspan><tspan class="cls-8" x="784.58" y="0">its</tspan><tspan class="cls-42" x="806.8" y="0"> </tspan><tspan class="cls-7" x="813.27" y="0">essence</tspan><tspan class="cls-41" x="883.49" y="0"> </tspan><tspan x="889.95" y="0">from</tspan><tspan class="cls-42" x="937.47" y="0"> </tspan><tspan x="943.94" y="0">the</tspan><tspan class="cls-42" x="974.15" y="0"> </tspan><tspan class="cls-9" x="980.62" y="0">endless</tspan><tspan class="cls-41" x="1050.41" y="0"> </tspan><tspan class="cls-7" x="1056.88" y="0">motion</tspan><tspan class="cls-42" x="1124.84" y="0"> </tspan><tspan class="cls-7" x="1131.31" y="0">of</tspan><tspan class="cls-42" x="1150.85" y="0"> </tspan><tspan x="1157.31" y="0">the </tspan><tspan class="cls-29" x="0" y="28.8">wav</tspan><tspan x="41.06" y="28.8">e</tspan><tspan class="cls-22" x="51.29" y="28.8">s</tspan><tspan class="cls-16" x="58.9" y="28.8">,</tspan><tspan class="cls-36" x="64.25" y="28.8"> </tspan><tspan class="cls-8" x="70.84" y="28.8">the</tspan><tspan class="cls-36" x="101.06" y="28.8"> </tspan><tspan x="107.66" y="28.8">p</tspan><tspan class="cls-28" x="120.54" y="28.8">ow</tspan><tspan x="149.39" y="28.8">er</tspan><tspan class="cls-37" x="169.38" y="28.8"> </tspan><tspan x="175.98" y="28.8">of</tspan><tspan class="cls-36" x="195.52" y="28.8"> </tspan><tspan x="202.11" y="28.8">the</tspan><tspan class="cls-36" x="232.33" y="28.8"> </tspan><tspan x="238.92" y="28.8">wind</tspan><tspan class="cls-15" x="289.16" y="28.8">,</tspan><tspan class="cls-37" x="294.51" y="28.8"> </tspan><tspan x="301.1" y="28.8">and</tspan><tspan class="cls-36" x="339.77" y="28.8"> </tspan><tspan x="346.36" y="28.8">the</tspan><tspan class="cls-36" x="376.58" y="28.8"> </tspan><tspan x="383.18" y="28.8">light</tspan><tspan class="cls-36" x="428.97" y="28.8"> </tspan><tspan x="435.56" y="28.8">that</tspan><tspan class="cls-36" x="475.55" y="28.8"> </tspan><tspan x="482.14" y="28.8">dances</tspan><tspan class="cls-36" x="549.24" y="28.8"> </tspan><tspan x="555.84" y="28.8">on</tspan><tspan class="cls-36" x="580.27" y="28.8"> </tspan><tspan x="586.87" y="28.8">the</tspan><tspan class="cls-36" x="617.08" y="28.8"> </tspan><tspan x="623.68" y="28.8">horizon</tspan><tspan class="cls-15" x="700.1" y="28.8">.</tspan><tspan class="cls-36" x="705.45" y="28.8"> </tspan><tspan class="cls-6" x="712.04" y="28.8">Li</tspan><tspan class="cls-30" x="733.84" y="28.8">k</tspan><tspan class="cls-6" x="746.05" y="28.8">e</tspan><tspan class="cls-36" x="756.28" y="28.8"> </tspan><tspan x="762.87" y="28.8">the</tspan><tspan class="cls-36" x="793.09" y="28.8"> </tspan><tspan x="799.68" y="28.8">sailors</tspan><tspan class="cls-36" x="864.12" y="28.8"> </tspan><tspan x="870.72" y="28.8">who</tspan><tspan class="cls-36" x="912.94" y="28.8"> </tspan><tspan x="919.53" y="28.8">n</tspan><tspan class="cls-28" x="932.42" y="28.8">a</tspan><tspan x="945.07" y="28.8">vigate</tspan><tspan class="cls-36" x="1005.52" y="28.8"> </tspan><tspan x="1012.12" y="28.8">with</tspan><tspan class="cls-35" x="1056.57" y="28.8"> </tspan><tspan x="1063.16" y="28.8">courage</tspan><tspan class="cls-35" x="1142.27" y="28.8"> </tspan><tspan x="1148.86" y="28.8">and </tspan><tspan x="0" y="57.6">precision</tspan><tspan class="cls-15" x="88.87" y="57.6">,</tspan><tspan class="cls-5" x="94.22" y="57.6"> </tspan><tspan x="105" y="57.6">our</tspan><tspan class="cls-4" x="138.77" y="57.6"> </tspan><tspan x="149.54" y="57.6">brand</tspan><tspan class="cls-5" x="210.43" y="57.6"> </tspan><tspan x="221.21" y="57.6">embodies</tspan><tspan class="cls-4" x="311.88" y="57.6"> </tspan><tspan x="322.65" y="57.6">the</tspan><tspan class="cls-5" x="352.87" y="57.6"> </tspan><tspan x="363.64" y="57.6">perfect</tspan><tspan class="cls-4" x="431.61" y="57.6"> </tspan><tspan x="442.39" y="57.6">balance</tspan><tspan class="cls-5" x="520.17" y="57.6"> </tspan><tspan x="530.95" y="57.6">bet</tspan><tspan class="cls-29" x="560.73" y="57.6">w</tspan><tspan x="578.27" y="57.6">een</tspan><tspan class="cls-4" x="611.61" y="57.6"> </tspan><tspan x="622.39" y="57.6">strength</tspan><tspan class="cls-5" x="703.26" y="57.6"> </tspan><tspan x="714.04" y="57.6">and</tspan><tspan class="cls-4" x="752.7" y="57.6"> </tspan><tspan x="763.48" y="57.6">re</tspan><tspan class="cls-44" x="783.47" y="57.6">f</tspan><tspan x="791.7" y="57.6">inement</tspan><tspan class="cls-16" x="869.92" y="57.6">,</tspan><tspan class="cls-4" x="875.27" y="57.6"> </tspan><tspan class="cls-9" x="886.04" y="57.6">a</tspan><tspan class="cls-28" x="898.93" y="57.6">dv</tspan><tspan class="cls-7" x="922.45" y="57.6">enture</tspan><tspan class="cls-4" x="985.12" y="57.6"> </tspan><tspan class="cls-7" x="995.89" y="57.6">and</tspan><tspan class="cls-4" x="1034.55" y="57.6"> </tspan><tspan x="1045.33" y="57.6">sophistication</tspan><tspan class="cls-17" x="1180.86" y="57.6">.</tspan><tspan x="0" y="115.2">Our</tspan><tspan class="cls-32" x="40.9" y="115.2"> </tspan><tspan x="48.95" y="115.2">inspiration</tspan><tspan class="cls-32" x="157.38" y="115.2"> </tspan><tspan x="165.43" y="115.2">is</tspan><tspan class="cls-32" x="180.55" y="115.2"> </tspan><tspan x="188.6" y="115.2">deeply</tspan><tspan class="cls-32" x="252.61" y="115.2"> </tspan><tspan x="260.67" y="115.2">rooted</tspan><tspan class="cls-32" x="323.74" y="115.2"> </tspan><tspan x="331.79" y="115.2">in</tspan><tspan class="cls-33" x="351.35" y="115.2"> </tspan><tspan x="359.4" y="115.2">the</tspan><tspan class="cls-32" x="389.62" y="115.2"> </tspan><tspan class="cls-29" x="397.67" y="115.2">w</tspan><tspan x="415.21" y="115.2">ork</tspan><tspan class="cls-32" x="448.98" y="115.2"> </tspan><tspan x="457.04" y="115.2">of</tspan><tspan class="cls-23" x="476.57" y="115.2"> </tspan><tspan class="cls-14" x="481.6" y="115.2">W</tspan><tspan x="505.89" y="115.2">illiam</tspan><tspan class="cls-24" x="563.68" y="115.2"> </tspan><tspan class="cls-13" x="568.72" y="115.2">T</tspan><tspan x="581.8" y="115.2">urne</tspan><tspan class="cls-11" x="627.13" y="115.2">r</tspan><tspan class="cls-17" x="634.5" y="115.2">,</tspan><tspan class="cls-32" x="639.85" y="115.2"> </tspan><tspan class="cls-6" x="647.91" y="115.2">the</tspan><tspan class="cls-32" x="678.12" y="115.2"> </tspan><tspan x="686.17" y="115.2">master</tspan><tspan class="cls-32" x="752.82" y="115.2"> </tspan><tspan class="cls-6" x="760.88" y="115.2">of</tspan><tspan class="cls-32" x="780.41" y="115.2"> </tspan><tspan x="788.46" y="115.2">light</tspan><tspan class="cls-33" x="834.25" y="115.2"> </tspan><tspan x="842.31" y="115.2">and</tspan><tspan class="cls-31" x="880.97" y="115.2"> </tspan><tspan x="889.02" y="115.2">m</tspan><tspan class="cls-28" x="907.24" y="115.2">ov</tspan><tspan class="cls-7" x="929.42" y="115.2">ement</tspan><tspan class="cls-16" x="988.07" y="115.2">.</tspan><tspan class="cls-33" x="993.42" y="115.2"> </tspan><tspan x="1001.48" y="115.2">Li</tspan><tspan class="cls-28" x="1023.27" y="115.2">k</tspan><tspan x="1035.48" y="115.2">e</tspan><tspan class="cls-31" x="1045.71" y="115.2"> </tspan><tspan x="1053.76" y="115.2">him</tspan><tspan class="cls-17" x="1091.54" y="115.2">,</tspan><tspan class="cls-34" x="1096.89" y="115.2"> </tspan><tspan x="1103.1" y="115.2">Admiral </tspan><tspan x="0" y="144">embraces</tspan><tspan class="cls-39" x="91.99" y="144"> </tspan><tspan x="98.62" y="144">contrasts</tspan><tspan class="cls-15" x="186.58" y="144">:</tspan><tspan class="cls-38" x="191.93" y="144"> </tspan><tspan x="198.57" y="144">the</tspan><tspan class="cls-39" x="228.78" y="144"> </tspan><tspan x="235.41" y="144">turbulence</tspan><tspan class="cls-38" x="339.43" y="144"> </tspan><tspan x="346.06" y="144">of</tspan><tspan class="cls-39" x="365.6" y="144"> </tspan><tspan x="372.23" y="144">the</tspan><tspan class="cls-38" x="402.44" y="144"> </tspan><tspan class="cls-29" x="409.08" y="144">wav</tspan><tspan x="450.14" y="144">es</tspan><tspan class="cls-39" x="468.81" y="144"> </tspan><tspan x="475.44" y="144">and</tspan><tspan class="cls-38" x="514.11" y="144"> </tspan><tspan x="520.74" y="144">the</tspan><tspan class="cls-39" x="550.95" y="144"> </tspan><tspan x="557.59" y="144">serenity</tspan><tspan class="cls-38" x="634.02" y="144"> </tspan><tspan x="640.66" y="144">of</tspan><tspan class="cls-39" x="660.19" y="144"> </tspan><tspan x="666.82" y="144">the</tspan><tspan class="cls-39" x="697.04" y="144"> </tspan><tspan x="703.67" y="144">open</tspan><tspan class="cls-38" x="751.21" y="144"> </tspan><tspan x="757.85" y="144">sea</tspan><tspan class="cls-18" x="789.41" y="144">,</tspan><tspan class="cls-39" x="794.76" y="144"> </tspan><tspan x="801.39" y="144">the</tspan><tspan class="cls-39" x="831.61" y="144"> </tspan><tspan x="838.24" y="144">r</tspan><tspan class="cls-28" x="848.01" y="144">a</tspan><tspan x="860.65" y="144">w</tspan><tspan class="cls-40" x="878.44" y="144"> </tspan><tspan x="885.07" y="144">energy</tspan><tspan class="cls-39" x="951.74" y="144"> </tspan><tspan x="958.37" y="144">of</tspan><tspan class="cls-39" x="977.91" y="144"> </tspan><tspan x="984.54" y="144">the</tspan><tspan class="cls-39" x="1014.76" y="144"> </tspan><tspan x="1021.39" y="144">elements</tspan><tspan class="cls-40" x="1105.38" y="144"> </tspan><tspan x="1112.02" y="144">and</tspan><tspan class="cls-39" x="1150.68" y="144"> </tspan><tspan x="1157.31" y="144">the </tspan><tspan x="0" y="172.8">understated</tspan><tspan class="cls-26" x="116.88" y="172.8"> </tspan><tspan x="122.38" y="172.8">elegance</tspan><tspan class="cls-27" x="207.72" y="172.8"> </tspan><tspan x="213.23" y="172.8">of</tspan><tspan class="cls-26" x="232.76" y="172.8"> </tspan><tspan x="238.26" y="172.8">luxur</tspan><tspan class="cls-12" x="292.96" y="172.8">y</tspan><tspan class="cls-15" x="301.43" y="172.8">.</tspan><tspan class="cls-26" x="306.78" y="172.8"> </tspan><tspan x="312.29" y="172.8">His</tspan><tspan class="cls-27" x="346.51" y="172.8"> </tspan><tspan x="352.01" y="172.8">painting</tspan><tspan class="cls-21" x="436.47" y="172.8">s</tspan><tspan class="cls-15" x="444.08" y="172.8">,</tspan><tspan class="cls-26" x="449.43" y="172.8"> </tspan><tspan x="454.93" y="172.8">vivid</tspan><tspan class="cls-27" x="503.38" y="172.8"> </tspan><tspan x="508.89" y="172.8">and</tspan><tspan class="cls-26" x="547.55" y="172.8"> </tspan><tspan x="553.05" y="172.8">p</tspan><tspan class="cls-29" x="565.94" y="172.8">ow</tspan><tspan x="594.79" y="172.8">erful</tspan><tspan class="cls-16" x="641.9" y="172.8">,</tspan><tspan class="cls-26" x="647.25" y="172.8"> </tspan><tspan class="cls-8" x="652.75" y="172.8">capture</tspan><tspan class="cls-27" x="727.85" y="172.8"> </tspan><tspan x="733.35" y="172.8">the</tspan><tspan class="cls-26" x="763.57" y="172.8"> </tspan><tspan x="769.07" y="172.8">sea</tspan><tspan class="cls-27" x="800.63" y="172.8"> </tspan><tspan x="806.13" y="172.8">li</tspan><tspan class="cls-30" x="819.48" y="172.8">k</tspan><tspan x="831.69" y="172.8">e</tspan><tspan class="cls-27" x="841.92" y="172.8"> </tspan><tspan x="847.42" y="172.8">no</tspan><tspan class="cls-27" x="871.85" y="172.8"> </tspan><tspan x="877.35" y="172.8">one</tspan><tspan class="cls-25" x="912.01" y="172.8"> </tspan><tspan x="917.51" y="172.8">else</tspan><tspan class="cls-27" x="953.08" y="172.8"> </tspan><tspan x="958.58" y="172.8">be</tspan><tspan class="cls-28" x="981.26" y="172.8">f</tspan><tspan x="989.01" y="172.8">ore</tspan><tspan class="cls-27" x="1020.55" y="172.8"> </tspan><tspan x="1026.05" y="172.8">him—an</tspan><tspan class="cls-25" x="1113.6" y="172.8"> </tspan><tspan x="1119.1" y="172.8">artistic </tspan><tspan x="0" y="201.6">legacy</tspan><tspan class="cls-1" x="63.12" y="201.6"> </tspan><tspan class="cls-29" x="77.38" y="201.6">w</tspan><tspan x="94.93" y="201.6">e</tspan><tspan class="cls-1" x="105.15" y="201.6"> </tspan><tspan x="119.41" y="201.6">translate</tspan><tspan class="cls-2" x="207.39" y="201.6"> </tspan><tspan x="221.65" y="201.6">into</tspan><tspan class="cls-1" x="259.86" y="201.6"> </tspan><tspan class="cls-29" x="274.12" y="201.6">ev</tspan><tspan x="294.98" y="201.6">ery</tspan><tspan class="cls-1" x="326.08" y="201.6"> </tspan><tspan x="340.34" y="201.6">creation</tspan><tspan class="cls-15" x="421.2" y="201.6">,</tspan><tspan class="cls-1" x="426.55" y="201.6"> </tspan><tspan x="440.81" y="201.6">where</tspan><tspan class="cls-2" x="501.7" y="201.6"> </tspan><tspan x="515.96" y="201.6">t</tspan><tspan class="cls-29" x="523.06" y="201.6">e</tspan><tspan x="533.05" y="201.6">xtures</tspan><tspan class="cls-1" x="594.39" y="201.6"> </tspan><tspan x="608.65" y="201.6">and</tspan><tspan class="cls-1" x="647.32" y="201.6"> </tspan><tspan x="661.58" y="201.6">tones</tspan><tspan class="cls-1" x="711.79" y="201.6"> </tspan><tspan x="726.05" y="201.6">e</tspan><tspan class="cls-29" x="736.27" y="201.6">c</tspan><tspan x="745.8" y="201.6">ho</tspan><tspan class="cls-2" x="770.23" y="201.6"> </tspan><tspan x="784.49" y="201.6">the</tspan><tspan class="cls-1" x="814.71" y="201.6"> </tspan><tspan x="828.97" y="201.6">depth</tspan><tspan class="cls-3" x="884.96" y="201.6"> </tspan><tspan x="899.22" y="201.6">and</tspan><tspan class="cls-1" x="937.88" y="201.6"> </tspan><tspan x="952.14" y="201.6">ri</tspan><tspan class="cls-30" x="968.58" y="201.6">c</tspan><tspan x="978.11" y="201.6">hness</tspan><tspan class="cls-1" x="1031.01" y="201.6"> </tspan><tspan x="1045.27" y="201.6">of</tspan><tspan class="cls-1" x="1064.8" y="201.6"> </tspan><tspan x="1079.07" y="201.6">the</tspan><tspan class="cls-1" x="1109.28" y="201.6"> </tspan><tspan x="1123.54" y="201.6">ocean</tspan><tspan class="cls-16" x="1180.85" y="201.6">.</tspan></text>
  </g>
</svg>